<svg width="30" height="30" viewBox="0 0 30 30" fill="none" xmlns="http://www.w3.org/2000/svg">
<path d="M3.75 7.50195H6.25H26.25" stroke="#BC0808" stroke-width="2" stroke-linecap="round" stroke-linejoin="round"/>
<path d="M10 7.50195V5.00195C10 4.33891 10.2634 3.70303 10.7322 3.23419C11.2011 2.76535 11.837 2.50195 12.5 2.50195H17.5C18.163 2.50195 18.7989 2.76535 19.2678 3.23419C19.7366 3.70303 20 4.33891 20 5.00195V7.50195M23.75 7.50195V25.002C23.75 25.665 23.4866 26.3009 23.0178 26.7697C22.5489 27.2386 21.913 27.502 21.25 27.502H8.75C8.08696 27.502 7.45107 27.2386 6.98223 26.7697C6.51339 26.3009 6.25 25.665 6.25 25.002V7.50195H23.75Z" stroke="#BC0808" stroke-width="2" stroke-linecap="round" stroke-linejoin="round"/>
<path d="M12.5 13.752V21.252" stroke="#BC0808" stroke-width="2" stroke-linecap="round" stroke-linejoin="round"/>
<path d="M17.5 13.752V21.252" stroke="#BC0808" stroke-width="2" stroke-linecap="round" stroke-linejoin="round"/>
</svg>
